<svg xmlns="http://www.w3.org/2000/svg" version="1.1" xmlns:xlink="http://www.w3.org/1999/xlink" xmlns:svgjs="http://svgjs.dev/svgjs" viewBox="0 0 1422 800" opacity="0.65"><defs><linearGradient x1="50%" y1="0%" x2="50%" y2="100%" id="ccchaos-grad"><stop stop-color="hsl(30, 100%, 50%)" stop-opacity="1" offset="0%"></stop><stop stop-color="hsl(30, 100%, 70%)" stop-opacity="1" offset="100%"></stop></linearGradient></defs><g stroke-width="2" stroke="url(#ccchaos-grad)" fill="none" stroke-linecap="round"><path d="M705.84 62.18Q715.09 69.01 724.47 75.96 733.96 82.97 743.56 89.96 753.26 96.88 763.05 103.67 772.91 110.25 782.82 116.59 792.77 122.65 802.73 128.39 812.68 133.81 822.6 138.88 832.47 143.62 842.25 148.06 851.95 152.21 861.52 156.12 870.97 159.83 880.27 163.41 889.41 166.91 898.39 170.4 907.2 173.93 915.85 177.57 924.32 181.38 932.65 185.4 940.82 189.67 948.87 194.23 956.8 199.1 964.65 204.28 972.42 209.78 980.16 215.58 987.89 221.66 995.64 227.98 993.42 238.42 991.7 248.86 990.61 259.29 990.26 269.73 990.67 280.16 991.81 290.6 993.58 301.04 995.82 311.47 998.34 321.91 1000.92 332.34 1003.33 342.78 1005.36 353.22 1006.83 363.65 1007.62 374.09 1007.65 384.52 1006.93 394.96 1005.51 405.39 1003.52 415.83 1001.13 426.27 998.56 436.7 996.03 447.14 993.75 457.57 991.93 468.01 990.74 478.44 990.26 488.88 990.55 499.32 991.58 509.75 993.26 520.19 995.43 530.62 997.93 541.06 997.76 558.91 986.93 570.9 978.69 575.71 970.29 580.73 961.71 586 952.95 591.48 944.01 597.18 934.89 603.08 925.61 609.14 916.16 615.34 906.56 621.62 896.84 627.97 887 634.32 877.08 640.64 867.09 646.9 857.06 653.04 847.02 659.04 836.98 664.87 826.97 670.51 817.02 675.94 807.13 681.16 797.34 686.17 787.65 690.98 778.08 695.6 768.64 700.06 759.33 704.39 750.15 708.62 741.11 712.78 732.2 716.92 723.42 721.08 714.76 725.28 706.19 729.57 696.94 723.54 687.82 717.65 678.81 711.91 669.92 706.35 661.14 700.98 652.45 695.82 643.86 690.86 635.34 686.11 626.89 681.53 618.48 677.12 610.1 672.85 601.73 668.68 593.37 664.57 584.99 660.5 576.58 656.41 568.12 652.27 559.62 648.03 551.05 643.66 542.41 639.13 533.69 634.42 524.9 629.49 516.03 624.34 507.08 618.97 498.05 613.38 488.96 607.58 479.8 601.59 470.59 595.44 461.33 589.17 452.03 582.8 442.71 576.39 433.37 569.98 424.02 563.6 423.39 553.18 422.72 542.77 422.07 532.35 421.51 521.93 421.08 511.51 420.81 501.09 420.74 490.67 420.86 480.25 421.17 469.83 421.64 459.41 422.23 449 422.88 438.58 423.55 428.16 424.16 417.74 424.68 407.32 425.05 396.9 425.23 386.48 425.23 376.06 425.02 365.64 424.64 355.23 424.12 344.81 423.49 334.39 422.83 323.97 422.17 313.55 421.59 303.13 421.14 292.71 420.84 282.29 420.74 271.87 420.83 261.45 421.11 251.03 426.49 233.58 440.76 222.96 450.13 219.41 459.52 215.83 468.94 212.15 478.36 208.32 487.78 204.29 497.18 200.02 506.56 195.46 515.9 190.59 525.18 185.4 534.41 179.88 543.57 174.05 552.65 167.93 561.65 161.54 570.55 154.94 579.37 148.16 588.1 141.27 596.74 134.33 605.3 127.4 613.78 120.54 622.19 113.82 630.55 107.3 638.87 101.02 647.16 95.02 655.44 89.35 663.72 84.01 672.03 79.01 680.38 74.35 688.79 70.02 701.55 64.08 705.84 62.18" stroke-dasharray="0 0" transform="rotate(0, 711, 400)" opacity="1.00"></path><path d="M706.98 76.09Q716.12 82.62 725.35 89.26 734.66 95.95 744.04 102.65 753.48 109.28 762.96 115.8 772.46 122.16 781.97 128.3 791.46 134.2 800.92 139.82 810.33 145.14 819.67 150.16 828.92 154.87 838.07 159.28 847.1 163.43 856 167.33 864.77 171.02 873.39 174.56 881.86 177.98 890.18 181.34 906.31 188.17 922.06 195.29 937.28 203.37 952.3 212.21 959.75 217.12 967.2 222.32 977.52 235.67 979.1 253.56 978.46 263.57 978.5 273.58 979.23 283.59 980.58 293.61 982.44 303.62 984.68 313.63 987.1 323.64 989.51 333.65 991.72 343.66 993.55 353.67 994.85 363.68 995.52 373.7 995.51 383.71 994.81 393.72 993.48 403.73 991.63 413.74 989.41 423.75 986.99 433.76 984.58 443.77 982.36 453.78 980.51 463.8 979.18 473.81 978.48 483.82 978.47 493.83 979.14 503.84 980.45 513.85 982.28 523.86 984.49 533.87 984.35 551.11 974.2 563 966.48 567.87 958.63 572.95 950.63 578.25 942.49 583.74 934.19 589.41 925.72 595.23 917.1 601.18 908.32 607.21 899.39 613.3 890.32 619.41 881.12 625.49 871.81 631.52 862.41 637.45 852.93 643.26 843.39 648.92 833.82 654.4 824.23 659.7 814.65 664.81 805.09 669.71 795.57 674.42 786.11 678.95 776.73 683.32 767.44 687.54 758.25 691.64 749.17 695.66 740.21 699.63 731.36 703.58 722.63 707.55 705.5 710.72 688.52 704.2 680.16 698.68 671.9 693.32 663.72 688.14 655.61 683.15 647.56 678.35 639.54 673.74 631.55 669.3 623.57 665.03 615.59 660.89 607.59 656.86 599.57 652.92 591.5 649.02 583.38 645.13 575.2 641.21 566.95 637.23 558.63 633.15 550.23 628.95 541.76 624.58 533.21 620.04 524.58 615.3 515.89 610.35 507.13 605.2 498.31 599.84 489.43 594.28 480.52 588.55 471.57 582.67 462.6 576.66 453.62 570.56 444.63 564.41 435.64 558.24 434.97 548.27 434.3 538.3 433.68 528.33 433.17 518.36 432.81 508.39 432.62 498.42 432.63 488.45 432.82 478.48 433.19 468.51 433.7 458.54 434.32 448.58 434.99 438.61 435.67 428.64 436.28 418.67 436.8 408.7 437.17 398.73 437.36 388.76 437.37 378.79 437.18 368.82 436.82 358.85 436.31 348.88 435.69 338.91 435.02 328.94 434.35 318.97 433.73 309 433.21 299.03 432.83 289.06 432.63 279.09 432.62 269.12 432.8 259.15 437.84 242.48 451.46 232.36 460.43 228.9 469.43 225.34 478.46 221.63 487.51 217.73 496.58 213.61 505.64 209.23 514.7 204.57 523.73 199.61 532.73 194.36 541.69 188.83 550.6 183.02 559.44 176.96 568.22 170.7 576.92 164.26 585.53 157.7 594.06 151.08 602.51 144.44 610.86 137.84 619.13 131.34 627.32 124.99 635.43 118.84 643.48 112.92 651.47 107.28 659.42 101.92 667.33 96.88 675.23 92.15 683.13 87.73 691.04 83.6 702.98 77.91 706.98 76.09" stroke-dasharray="0 0" transform="rotate(5.956521739130435, 711, 400)" opacity="0.96"></path><path d="M708.74 89.99Q717.66 96.22 726.64 102.55 735.66 108.93 744.71 115.33 753.76 121.67 762.82 127.93 771.85 134.04 780.85 139.98 789.8 145.7 798.68 151.18 807.48 156.4 816.18 161.34 824.78 166.01 833.27 170.4 841.63 174.53 849.86 178.42 865.87 185.54 881.49 192.25 896.52 198.74 911.27 205.36 925.69 212.65 940.02 220.55 954.42 229.66 968.98 239.55 967.6 249.14 966.76 258.72 966.53 268.3 966.92 277.89 967.91 287.47 969.42 297.05 971.34 306.64 973.53 316.22 975.83 325.8 978.06 335.39 980.07 344.97 981.71 354.55 982.85 364.13 983.41 373.72 983.36 383.3 982.68 392.88 981.45 402.47 979.73 412.05 977.67 421.63 975.41 431.22 973.12 440.8 970.97 450.38 969.11 459.96 967.69 469.55 966.81 479.13 966.53 488.71 966.87 498.3 967.81 507.88 969.28 517.46 971.17 527.04 970.92 543.68 961.32 555.46 954.05 560.38 946.7 565.49 939.24 570.79 931.65 576.24 923.94 581.84 916.09 587.55 908.1 593.34 899.97 599.18 891.69 605.03 883.28 610.87 874.74 616.66 866.07 622.37 857.29 627.97 848.42 633.43 839.46 638.74 830.43 643.88 821.34 648.85 812.23 653.62 803.09 658.22 793.96 662.64 784.84 666.9 775.75 671.01 766.72 675 757.74 678.89 748.84 682.7 740.02 686.48 731.29 690.24 722.66 694.02 705.97 697.04 689.98 690.77 682.22 685.46 674.52 680.3 666.87 675.31 659.25 670.49 651.65 665.85 644.05 661.39 628.81 653.02 613.48 645.06 597.89 637.54 582.11 630.11 574.1 626.36 566.01 622.55 557.84 618.64 549.6 614.61 541.3 610.42 532.92 606.07 524.49 601.53 516 596.81 507.47 591.89 498.9 586.78 490.3 581.49 481.68 576.02 473.05 570.42 464.42 564.69 455.8 558.86 447.19 552.98 446.5 543.46 445.85 533.93 445.29 524.41 444.85 514.89 444.57 505.37 444.47 495.85 444.55 486.33 444.81 476.81 445.24 467.29 445.79 457.76 446.44 448.24 447.12 438.72 447.79 429.2 448.41 419.68 448.92 410.16 449.29 400.64 449.49 391.11 449.51 381.59 449.34 372.07 449 362.55 448.51 353.03 447.91 343.51 447.24 333.98 446.56 324.46 445.9 314.94 445.33 305.42 444.88 295.9 444.58 286.38 444.47 276.86 444.54 267.33 449.22 251.4 462.15 241.64 470.7 238.19 479.29 234.59 487.92 230.81 496.58 226.83 505.26 222.6 513.96 218.12 522.66 213.38 531.36 208.37 540.05 203.09 548.72 197.57 557.35 191.82 565.93 185.88 574.47 179.77 582.94 173.54 591.35 167.23 599.68 160.9 607.93 154.58 616.1 148.33 624.18 142.19 632.18 136.21 640.1 130.42 647.93 124.86 655.7 119.55 663.39 114.52 678.6 105.43 693.7 97.17 704.98 91.73 708.74 89.99" stroke-dasharray="0 0" transform="rotate(11.91304347826087, 711, 400)" opacity="0.92"></path><path d="M710.85 103.9Q719.44 109.83 728.05 115.85 736.67 121.93 745.26 128.02 753.84 134.08 762.37 140.06 770.85 145.93 779.26 151.64 787.6 157.18 795.85 162.5 804 167.6 812.05 172.46 819.99 177.06 827.82 181.41 843.07 189.3 857.98 196.56 872.38 203.07 886.52 209.34 900.37 215.62 914.13 222.13 927.91 229.38 941.81 237.23 951.98 248.4 954.68 264.41 954.82 273.56 955.51 282.71 956.71 291.85 958.33 301 960.26 310.15 962.37 319.3 964.53 328.45 966.58 337.6 968.39 346.75 969.84 355.9 970.83 365.05 971.3 374.21 971.21 383.36 970.56 392.51 969.41 401.66 967.83 410.81 965.92 419.96 963.82 429.11 961.66 438.26 959.59 447.41 957.75 456.56 956.26 465.71 955.23 474.86 954.71 484.01 954.75 493.16 955.35 502.31 956.46 511.46 958 520.61 957.53 536.63 948.36 548.27 934.54 558.4 920.51 568.96 913.33 574.43 906.05 579.98 898.65 585.57 891.12 591.17 883.47 596.76 875.7 602.31 867.8 607.78 859.78 613.15 851.65 618.41 843.41 623.52 835.06 628.49 826.63 633.29 818.12 637.92 809.55 642.38 800.93 646.67 792.27 650.81 783.59 654.8 774.9 658.67 766.22 662.43 757.56 666.11 748.94 669.72 740.36 673.31 731.84 676.89 723.39 680.49 707.19 683.34 692.1 677.33 677.62 667.36 663.18 657.84 648.68 649.13 634.07 640.89 619.2 633.31 604.15 626.02 588.74 618.95 573.12 611.85 565.18 608.21 557.19 604.48 549.13 600.63 541.02 596.64 532.86 592.49 524.67 588.18 516.44 583.69 508.19 579.02 499.93 574.18 491.65 569.16 483.39 563.98 475.13 558.67 462.44 545.92 457.39 529.54 456.89 520.46 456.54 511.39 456.35 502.32 456.34 493.24 456.5 484.17 456.83 475.09 457.31 466.02 457.9 456.94 458.56 447.87 459.25 438.79 459.92 429.72 460.53 420.64 461.04 411.57 461.4 402.5 461.61 393.42 461.64 384.35 461.49 375.27 461.17 366.2 460.71 357.12 460.13 348.05 459.47 338.97 458.79 329.9 458.11 320.83 457.49 311.75 456.98 302.68 456.59 293.6 456.37 284.53 456.33 275.46 460.62 260.22 472.84 250.7 480.96 247.2 489.12 243.53 497.33 239.67 505.58 235.58 513.85 231.27 522.16 226.71 530.49 221.91 538.83 216.88 547.17 211.62 555.5 206.15 563.83 200.51 572.12 194.71 580.39 188.8 588.61 182.81 596.78 176.78 604.9 170.75 612.95 164.77 620.93 158.87 628.83 153.09 636.65 147.48 644.4 142.05 652.06 136.84 659.64 131.86 667.14 127.14 681.9 118.58 696.47 110.76 707.26 105.56 710.85 103.9" stroke-dasharray="0 0" transform="rotate(17.869565217391305, 711, 400)" opacity="0.88"></path><path d="M712.98 117.8Q729.27 129.16 745.43 140.71 761.38 152.19 777.03 163.29 792.33 173.78 807.25 183.48 821.76 192.31 835.88 200.24 849.64 207.37 863.11 213.86 876.37 219.94 889.53 225.86 902.69 231.91 915.98 238.35 929.51 245.4 943.39 253.2 942.84 270.63 944.25 288.06 947.28 305.48 951.19 322.91 955.06 340.34 957.96 357.76 959.18 375.19 958.44 392.62 955.91 410.04 952.21 427.47 948.21 444.9 944.88 462.33 943.02 479.75 943.07 497.18 945.03 514.61 948.41 532.04 935.41 541.46 922.36 551.45 909.14 561.85 895.66 572.5 881.83 583.19 867.6 593.71 852.92 603.87 837.82 613.54 822.3 622.62 806.43 631.08 790.27 638.95 773.92 646.31 757.46 653.32 740.98 660.14 724.6 666.95 708.37 673.95 694.68 663.9 680.99 654.28 667.21 645.21 653.28 636.73 639.14 628.85 624.74 621.49 610.07 614.52 595.13 607.79 579.92 601.09 564.49 594.23 548.88 587.03 533.15 579.32 517.34 571.01 501.53 562.04 485.77 552.43 470.1 542.28 468.95 525.02 468.28 507.76 468.26 490.5 468.9 473.24 470.03 455.98 471.4 438.72 472.66 421.46 473.53 404.2 473.78 386.94 473.36 369.68 472.37 352.42 471.05 335.16 469.72 317.9 468.68 300.64 468.2 283.38 468.39 266.12 483.59 259.44 498.99 252.1 514.57 243.97 530.31 234.98 546.18 225.15 562.11 214.59 578.06 203.48 593.95 192.07 609.72 180.64 625.3 169.46 640.65 158.8 655.71 148.86 670.47 139.78 684.92 131.62 706.03 121.07 712.98 117.8" stroke-dasharray="0 0" transform="rotate(23.82608695652174, 711, 400)" opacity="0.83"></path><path d="M714.8 131.7Q730.01 142.45 744.99 153.41 759.7 164.3 774.08 174.91 788.12 185.01 801.81 194.43 815.17 203.09 828.22 210.94 841.04 218.04 853.68 224.48 866.24 230.45 878.81 236.16 891.48 241.83 904.36 247.69 917.53 253.97 931.07 260.83 931.25 277.38 933.11 293.92 936.25 310.47 939.99 327.02 943.5 343.57 946.04 360.11 947.05 376.66 946.32 393.21 943.99 409.75 940.58 426.3 936.83 442.85 933.54 459.4 931.44 475.94 930.98 492.49 932.26 509.04 935 525.59 922.53 534.98 910.12 544.8 897.65 554.89 885.03 565.08 872.18 575.18 859.02 585.04 845.52 594.51 831.63 603.48 817.36 611.88 802.74 619.73 787.79 627.05 772.57 633.94 757.14 640.53 741.6 646.97 726 653.42 710.44 660.06 697.46 650.47 684.36 641.29 671.09 632.59 657.61 624.44 643.87 616.84 629.87 609.74 615.61 603.03 601.11 596.6 586.4 590.27 571.52 583.88 556.52 577.25 541.45 570.23 526.37 562.71 511.33 554.61 496.37 545.91 481.53 536.65 480.53 520.27 480.07 503.89 480.24 487.52 481 471.14 482.2 454.76 483.56 438.38 484.8 422.01 485.65 405.63 485.92 389.25 485.55 372.88 484.63 356.5 483.35 340.12 481.99 323.75 480.84 307.37 480.17 290.99 480.1 274.62 494.41 267.79 508.91 260.27 523.59 252 538.45 242.96 553.46 233.21 568.59 222.91 583.78 212.21 599 201.35 614.16 190.57 629.22 180.11 644.12 170.16 658.81 160.91 673.24 152.44 687.38 144.79 708.02 134.81 714.8 131.7" stroke-dasharray="0 0" transform="rotate(29.782608695652172, 711, 400)" opacity="0.79"></path><path d="M716.04 145.61Q730.05 155.77 743.8 166.11 757.25 176.43 770.41 186.52 783.27 196.2 795.85 205.32 808.18 213.77 820.33 221.5 832.34 228.54 844.29 234.95 856.26 240.86 868.33 246.41 880.58 251.8 893.08 257.22 905.89 262.88 919.07 268.94 919.88 284.6 922.08 300.26 925.24 315.92 928.74 331.59 931.9 347.25 934.11 362.91 934.92 378.57 934.19 394.24 932.06 409.9 928.94 425.56 925.43 441.23 922.24 456.89 919.97 472.55 919.07 488.21 919.72 503.88 921.79 519.54 909.81 528.8 897.95 538.33 886.13 548 874.26 557.65 862.27 567.12 850.07 576.29 837.62 585.05 824.87 593.32 811.8 601.07 798.39 608.31 784.67 615.11 770.66 621.53 756.38 627.71 741.91 633.78 727.29 639.88 712.59 646.15 700.14 637.04 687.5 628.29 674.63 619.99 661.52 612.17 648.17 604.85 634.57 598.01 620.75 591.56 606.74 585.41 592.57 579.41 578.3 573.43 563.97 567.32 549.62 560.93 535.31 554.14 521.08 546.87 506.96 539.06 492.97 530.71 492.17 515.2 491.92 499.7 492.26 484.2 493.14 468.7 494.38 453.2 495.74 437.7 496.95 422.2 497.77 406.69 498.05 391.19 497.74 375.69 496.89 360.19 495.66 344.69 494.31 329.19 493.08 313.69 492.23 298.19 491.92 282.69 505.33 275.69 518.92 268.02 532.69 259.67 546.64 250.67 560.76 241.11 575.02 231.14 589.39 220.93 603.84 210.67 618.31 200.57 632.75 190.82 647.11 181.59 661.33 173 675.37 165.12 689.19 157.97 709.39 148.55 716.04 145.61" stroke-dasharray="0 0" transform="rotate(35.73913043478261, 711, 400)" opacity="0.75"></path><path d="M716.49 159.52Q729.28 169.08 741.81 178.82 754.08 188.56 766.11 198.13 777.91 207.37 789.51 216.13 800.98 224.34 812.35 231.93 823.69 238.89 835.06 245.25 846.53 251.1 858.17 256.56 870.02 261.76 882.15 266.86 894.59 272.04 907.37 277.44 908.7 292.21 911.12 306.99 914.22 321.76 917.46 336.54 920.26 351.31 922.15 366.09 922.79 380.86 922.07 395.64 920.12 410.41 917.27 425.19 914.03 439.96 910.96 454.74 908.59 469.52 907.33 484.29 907.42 499.07 908.82 513.84 897.29 522.84 885.94 531.98 874.68 541.13 863.47 550.17 852.21 558.97 840.86 567.42 829.34 575.47 817.61 583.05 805.64 590.17 793.4 596.84 780.87 603.12 768.06 609.1 754.99 614.89 741.68 620.59 728.17 626.34 714.5 632.24 702.44 623.61 690.17 615.31 677.66 607.39 664.91 599.92 651.95 592.9 638.79 586.31 625.47 580.11 612.01 574.22 598.46 568.52 584.87 562.91 571.27 557.25 557.71 551.42 544.22 545.3 530.83 538.79 517.57 531.83 504.45 524.38 503.87 509.75 503.83 495.12 504.35 480.49 505.32 465.85 506.59 451.22 507.92 436.59 509.09 421.96 509.89 407.33 510.19 392.69 509.93 378.06 509.15 363.43 508 348.8 506.67 334.17 505.39 319.54 504.4 304.9 503.85 290.27 516.39 283.12 529.07 275.36 541.92 267.02 554.94 258.16 568.12 248.88 581.47 239.33 594.96 229.66 608.56 220.05 622.24 210.65 635.96 201.61 649.67 193.08 663.33 185.13 676.88 177.82 690.28 171.15 710 162.3 716.49 159.52" stroke-dasharray="0 0" transform="rotate(41.69565217391305, 711, 400)" opacity="0.71"></path><path d="M716.1 173.41Q727.71 182.39 739.11 191.53 750.31 200.69 761.33 209.72 772.22 218.49 783 226.88 793.74 234.81 804.47 242.2 815.25 249.05 826.13 255.35 837.16 261.15 848.4 266.54 859.87 271.61 871.61 276.5 883.63 281.32 895.96 286.22 897.68 300.11 900.21 314 903.18 327.89 906.12 341.77 908.57 355.66 910.17 369.55 910.65 383.44 909.95 397.32 908.17 411.21 905.59 425.1 902.61 438.99 899.69 452.87 897.28 466.76 895.76 480.65 895.35 494.54 896.13 508.43 885.03 517.04 874.14 525.69 863.4 534.24 852.75 542.61 842.14 550.7 831.51 558.44 820.81 565.77 809.98 572.69 798.99 579.19 787.81 585.31 776.4 591.11 764.75 596.66 752.86 602.06 740.74 607.41 728.4 612.8 715.86 618.34 704.14 610.2 692.2 602.34 680.06 594.82 667.72 587.7 655.21 580.98 642.56 574.66 629.81 568.71 616.99 563.07 604.14 557.65 591.3 552.36 578.5 547.1 565.76 541.75 553.13 536.22 540.61 530.4 528.23 524.23 515.99 517.64 515.65 503.87 515.83 490.1 516.49 476.33 517.55 462.56 518.82 448.79 520.12 435.02 521.24 421.25 522.02 407.48 522.32 393.71 522.11 379.94 521.42 366.17 520.35 352.4 519.07 338.63 517.77 324.86 516.67 311.09 515.92 297.32 527.59 290.07 539.38 282.31 551.31 274.07 563.39 265.46 575.63 256.56 588.04 247.5 600.59 238.43 613.29 229.48 626.1 220.79 639 212.46 651.95 204.61 664.91 197.29 677.85 190.53 690.72 184.34 709.79 176.03 716.1 173.41" stroke-dasharray="0 0" transform="rotate(47.65217391304348, 711, 400)" opacity="0.67"></path><path d="M714.91 187.32Q725.46 195.71 735.85 204.25 746.12 212.82 756.3 221.31 766.42 229.59 776.52 237.58 786.65 245.18 796.84 252.34 807.14 259.03 817.58 265.24 828.21 270.99 839.04 276.33 850.11 281.32 861.42 286.06 872.99 290.64 884.81 295.19 886.78 308.19 889.33 321.19 892.1 334.19 894.73 347.19 896.84 360.19 898.16 373.19 898.51 386.19 897.83 399.18 896.22 412.18 893.89 425.18 891.18 438.18 888.44 451.18 886.04 464.18 884.33 477.18 883.52 490.18 883.72 503.18 873.07 511.3 862.63 519.36 852.36 527.26 842.22 534.92 832.17 542.28 822.17 549.3 812.17 555.95 802.12 562.22 791.99 568.14 781.74 573.73 771.34 579.06 760.76 584.2 749.99 589.22 739.02 594.21 727.84 599.25 716.47 604.44 705.09 596.78 693.53 589.37 681.81 582.26 669.95 575.5 657.99 569.09 645.95 563.05 633.86 557.35 621.77 551.95 609.69 546.78 597.66 541.78 585.7 536.87 573.84 531.94 562.1 526.92 550.48 521.71 538.99 516.25 527.63 510.46 527.53 497.54 527.91 484.63 528.7 471.72 529.8 458.8 531.07 445.89 532.32 432.98 533.4 420.07 534.14 407.15 534.45 394.24 534.29 381.33 533.69 368.41 532.71 355.5 531.5 342.59 530.22 329.67 529.04 316.76 528.13 303.85 538.95 296.59 549.86 288.92 560.89 280.91 572.04 272.63 583.34 264.19 594.79 255.7 606.38 247.26 618.13 239 630 231.02 642 223.4 654.09 216.21 666.24 209.49 678.44 203.27 690.64 197.53 708.86 189.78 714.91 187.32" stroke-dasharray="0 0" transform="rotate(53.608695652173914, 711, 400)" opacity="0.63"></path><path d="M713.12 201.23Q722.74 209.04 732.29 216.98 741.78 224.96 751.26 232.89 760.74 240.67 770.28 248.22 779.89 255.47 789.61 262.36 799.47 268.85 809.5 274.93 819.71 280.59 830.12 285.87 840.74 290.8 851.57 295.45 862.62 299.88 873.86 304.19 875.97 316.3 878.44 328.41 880.98 340.53 883.28 352.64 885.07 364.75 886.14 376.87 886.36 388.98 885.7 401.09 884.25 413.21 882.18 425.32 879.72 437.43 877.18 449.55 874.86 461.66 873.02 473.77 871.9 485.89 871.62 498 861.42 505.53 851.43 512.93 841.62 520.12 831.96 527.05 822.42 533.69 812.98 540 803.58 545.98 794.21 551.64 784.81 557 775.37 562.09 765.85 566.98 756.22 571.71 746.46 576.37 736.55 581.01 726.48 585.7 716.24 590.53 705.26 583.36 694.17 576.41 682.97 569.72 671.7 563.32 660.39 557.24 649.05 551.49 637.72 546.04 626.43 540.88 615.19 535.95 604.03 531.22 592.97 526.6 582.01 522.04 571.17 517.45 560.46 512.77 549.86 507.92 539.38 502.84 539.52 490.78 540.07 478.72 540.96 466.66 542.1 454.6 543.34 442.54 544.54 430.48 545.55 418.42 546.26 406.36 546.58 394.3 546.47 382.24 545.95 370.18 545.08 358.12 543.95 346.06 542.72 334 541.51 321.93 540.48 309.87 550.47 302.72 560.53 295.26 570.68 287.57 580.93 279.73 591.29 271.83 601.79 263.94 612.42 256.18 623.18 248.62 634.09 241.34 645.12 234.4 656.27 227.86 667.53 221.73 678.86 216.03 690.26 210.74 707.41 203.52 713.12 201.23" stroke-dasharray="0 0" transform="rotate(59.565217391304344, 711, 400)" opacity="0.59"></path><path d="M711 215.13Q719.85 222.36 728.69 229.71 737.55 237.1 746.44 244.47 755.39 251.73 764.44 258.82 773.59 265.68 782.88 272.25 792.31 278.5 801.9 284.4 811.67 289.95 821.61 295.15 831.73 300.02 842.02 304.6 852.48 308.94 863.08 313.09 865.21 324.32 867.53 335.55 869.79 346.78 871.76 358.01 873.25 369.24 874.09 380.47 874.21 391.7 873.58 402.93 872.28 414.16 870.44 425.39 868.24 436.62 865.92 447.85 863.71 459.08 861.83 470.31 860.48 481.54 859.81 492.77 850.1 499.64 840.58 506.32 831.23 512.78 822.04 518.98 812.98 524.9 804.04 530.54 795.19 535.88 786.4 540.96 777.64 545.78 768.89 550.41 760.13 554.87 751.31 559.21 742.43 563.51 733.46 567.8 724.39 572.16 715.19 576.63 704.74 569.95 694.23 563.46 683.68 557.19 673.11 551.17 662.55 545.43 652.02 539.97 641.53 534.79 631.1 529.87 620.76 525.18 610.51 520.68 600.37 516.34 590.33 512.08 580.4 507.87 570.59 503.62 560.88 499.29 551.27 494.82 551.62 483.62 552.32 472.41 553.29 461.2 554.43 449.99 555.63 438.78 556.76 427.57 557.71 416.36 558.38 405.15 558.71 393.94 558.65 382.73 558.21 371.52 557.45 360.31 556.43 349.1 555.26 337.89 554.07 326.68 552.97 315.47 562.16 308.53 571.4 301.4 580.7 294.14 590.07 286.82 599.53 279.51 609.09 272.28 618.76 265.21 628.55 258.35 638.47 251.76 648.51 245.49 658.68 239.56 668.96 234 679.35 228.8 689.83 223.94 705.7 217.26 711 215.13" stroke-dasharray="0 0" transform="rotate(65.52173913043478, 711, 400)" opacity="0.55"></path><path d="M708.88 229.03Q717.1 235.69 725.36 242.45 733.67 249.25 742.06 256.05 750.55 262.78 759.13 269.39 767.84 275.82 776.69 282.03 785.67 287.99 794.79 293.66 804.06 299.05 813.47 304.13 823.03 308.92 832.71 313.44 842.51 317.71 852.41 321.76 854.46 332.11 856.56 342.47 858.53 352.82 860.18 363.17 861.38 373.52 862.02 383.87 862.05 394.23 861.46 404.58 860.3 414.93 858.68 425.28 856.74 435.64 854.64 445.99 852.58 456.34 850.72 466.69 849.24 477.04 848.27 487.39 839.1 493.54 830.08 499.49 821.22 505.21 812.51 510.69 803.93 515.92 795.47 520.9 787.12 525.64 778.85 530.17 770.65 534.5 762.51 538.67 754.39 542.72 746.27 546.7 738.14 550.64 729.98 554.59 721.77 558.61 713.49 562.72 703.71 556.54 693.91 550.51 684.13 544.68 674.37 539.05 664.65 533.66 655 528.52 645.41 523.61 635.91 518.94 626.49 514.48 617.18 510.22 607.96 506.11 598.85 502.13 589.83 498.22 580.91 494.34 567.96 483.29 564.66 465.77 565.67 455.41 566.79 445.05 567.93 434.69 568.99 424.33 569.88 413.97 570.51 403.61 570.83 393.25 570.81 382.88 570.47 372.52 569.81 362.16 568.91 351.8 567.84 341.44 566.7 331.08 565.58 320.72 574.01 314.12 582.45 307.43 590.93 300.68 599.46 293.95 608.05 287.28 616.71 280.73 625.46 274.35 634.3 268.19 643.24 262.28 652.29 256.65 661.46 251.32 670.74 246.3 680.12 241.58 689.61 237.15 704.04 231.01 708.88 229.03" stroke-dasharray="0 0" transform="rotate(71.47826086956522, 711, 400)" opacity="0.50"></path><path d="M707.09 242.93Q714.77 249.01 722.53 255.19 730.36 261.41 738.29 267.63 746.31 273.82 754.44 279.91 762.69 285.89 771.05 291.7 779.52 297.32 788.12 302.72 796.83 307.89 805.64 312.81 814.56 317.48 823.56 321.91 838.16 332.84 845.52 349.05 847.18 358.53 848.53 368.01 849.47 377.49 849.94 386.97 849.89 396.45 849.34 405.93 848.31 415.41 846.9 424.89 845.2 434.37 843.34 443.85 841.45 453.33 839.68 462.81 838.15 472.29 836.97 481.76 828.38 487.16 819.92 492.37 811.59 497.37 803.38 502.15 795.3 506.73 787.33 511.1 771.74 519.21 756.41 526.9 741.35 534.16 726.38 541.39 710.66 544.1 693.45 537.59 684.54 532.19 675.67 526.97 666.88 521.94 658.15 517.12 649.51 512.51 640.95 508.09 632.48 503.88 624.1 499.84 615.81 495.97 607.6 492.22 599.47 488.58 591.42 485.01 579.82 474.94 577.08 458.9 578.1 449.39 579.18 439.88 580.25 430.37 581.23 420.85 582.04 411.34 582.63 401.83 582.95 392.32 582.97 382.8 582.71 373.29 582.17 363.78 581.39 354.27 580.44 344.75 582.68 327.41 593.67 313.42 601.37 307.26 609.1 301.17 616.86 295.17 624.66 289.32 632.53 283.63 640.45 278.15 648.46 272.9 656.55 267.89 664.73 263.13 673 258.63 681.38 254.38 689.85 250.36 702.75 244.74 707.09 242.93" stroke-dasharray="0 0" transform="rotate(77.43478260869564, 711, 400)" opacity="0.46"></path><path d="M705.9 256.84Q720.38 267.94 735.19 279.22 750.37 290.43 765.92 301.29 781.82 311.6 798.04 321.2 814.52 330 831.16 338.01 834.39 355.23 836.81 372.45 837.83 389.67 837.21 406.89 835.1 424.11 832.01 441.33 828.67 458.56 825.89 475.78 810.07 484.92 794.66 493.36 779.65 501.12 765.03 508.31 750.75 515.08 736.75 521.63 722.95 528.17 709.26 534.92 693.12 524.66 677.23 514.91 661.63 505.78 646.33 497.34 631.33 489.58 616.62 482.4 602.16 475.68 587.89 469.22 589.57 451.9 591.6 434.57 593.47 417.25 594.75 399.93 595.13 382.61 594.51 365.28 593.04 347.96 591.08 330.64 605.03 319.48 618.95 308.54 632.92 298.07 647.02 288.25 661.31 279.21 675.86 270.99 698.3 260.21 705.9 256.84" stroke-dasharray="0 0" transform="rotate(83.3913043478261, 711, 400)" opacity="0.42"></path><path d="M705.5 270.75Q719 280.7 732.79 290.82 746.86 300.92 761.21 310.81 775.79 320.32 790.58 329.31 805.49 337.7 820.47 345.44 823.15 360.93 825.02 376.42 825.71 391.91 825.09 407.41 823.28 422.9 820.64 438.39 817.67 453.89 814.97 469.38 800.49 477.13 786.31 484.32 772.44 490.99 758.89 497.25 745.64 503.22 732.67 509.07 719.93 514.95 707.38 521.01 693.18 511.74 679.22 502.87 665.53 494.51 652.1 486.69 638.9 479.45 625.92 472.72 613.1 466.45 600.41 460.5 602.14 444.88 604.03 429.26 605.72 413.65 606.87 398.04 607.27 382.42 606.83 366.81 605.64 351.2 603.93 335.58 616.48 325.69 628.97 316.11 641.44 307 653.95 298.47 666.56 290.6 679.33 283.39 698.89 273.77 705.5 270.75" stroke-dasharray="0 0" transform="rotate(89.34782608695652, 711, 400)" opacity="0.38"></path><path d="M705.94 284.64Q718.36 293.46 730.99 302.43 743.81 311.41 756.8 320.28 769.93 328.9 783.15 337.17 796.42 345.01 809.68 352.37 811.79 366.13 813.16 379.9 813.57 393.67 812.97 407.44 811.44 421.21 809.23 434.98 806.67 448.76 804.16 462.53 791.13 468.99 778.29 475.03 765.67 480.7 753.29 486.11 741.14 491.34 729.24 496.51 717.55 501.73 706.06 507.11 693.81 498.83 681.77 490.87 669.94 483.29 658.3 476.15 646.83 469.46 635.49 463.22 624.25 457.37 613.08 451.87 614.77 437.97 616.48 424.07 617.97 410.17 619 396.27 619.4 382.37 619.12 368.47 618.2 354.57 616.79 340.68 627.99 332.12 639.1 323.91 650.15 316.13 661.19 308.84 672.24 302.06 683.36 295.8 700.26 287.33 705.94 284.64" stroke-dasharray="0 0" transform="rotate(95.30434782608695, 711, 400)" opacity="0.34"></path><path d="M707.18 298.55Q718.35 306.24 729.65 314.05 741.06 321.9 752.55 329.7 764.09 337.36 775.66 344.8 787.22 351.96 798.73 358.79 800.29 370.84 801.22 382.89 801.42 394.95 800.85 407 799.58 419.05 797.77 431.11 795.63 443.16 793.42 455.21 781.91 460.51 770.52 465.52 759.27 470.29 748.17 474.91 737.24 479.43 726.49 483.93 715.91 488.5 705.51 493.21 695.14 485.93 684.94 478.9 674.87 472.15 664.93 465.72 655.08 459.65 645.3 453.92 635.58 448.53 625.87 443.46 627.43 431.28 628.95 419.1 630.23 406.93 631.12 394.75 631.52 382.57 631.39 370.4 630.73 358.22 629.62 346.04 639.5 338.85 649.27 331.97 658.97 325.45 668.61 319.33 678.23 313.6 687.84 308.25 702.33 300.9 707.18 298.55" stroke-dasharray="0 0" transform="rotate(101.26086956521739, 711, 400)" opacity="0.30"></path><path d="M709 312.46Q718.76 319.02 728.57 325.69 738.42 332.4 748.3 339.09 758.17 345.73 768.02 352.24 777.84 358.6 787.59 364.74 788.66 375.08 789.22 385.42 789.25 395.76 788.72 406.1 787.7 416.44 786.26 426.78 784.54 437.11 782.68 447.45 772.77 451.72 762.92 455.81 753.14 459.78 743.45 463.65 733.86 467.5 724.39 471.35 715.03 475.27 705.8 479.3 697.21 473.04 688.71 466.95 680.29 461.06 671.93 455.41 663.61 450.01 655.32 444.86 643.59 432.44 641.41 414.46 642.48 404.01 643.24 393.57 643.63 383.12 643.61 372.67 643.19 362.22 642.4 351.78 650.95 345.91 659.41 340.3 667.79 334.98 676.11 329.95 684.37 325.19 692.59 320.71 704.9 314.47 709 312.46" stroke-dasharray="0 0" transform="rotate(107.21739130434783, 711, 400)" opacity="0.26"></path><path d="M711.13 326.36Q727.52 337.33 743.89 348.48 760.16 359.55 776.24 370.29 777.16 387.54 776.6 404.8 774.7 422.05 771.91 439.31 755.4 445.96 739.01 452.37 722.82 458.78 706.89 465.4 693.01 455.04 679.23 445.22 665.49 436.07 651.7 427.65 653.88 410.22 655.37 392.79 655.8 375.37 655.08 357.94 669.45 348.92 683.55 340.68 704.27 329.78 711.13 326.36" stroke-dasharray="0 0" transform="rotate(113.17391304347827, 711, 400)" opacity="0.22"></path><path d="M713.24 340.26Q726.26 349 739.2 357.88 752.01 366.77 764.65 375.55 765.03 389.37 764.48 403.19 763.08 417.01 761.04 430.83 747.87 435.97 734.71 441.05 721.61 446.19 708.62 451.49 697.68 443.15 686.73 435.13 675.74 427.53 664.67 420.38 666.34 406.44 667.49 392.49 667.94 378.55 667.63 364.61 679.31 357.83 690.8 351.54 707.67 342.98 713.24 340.26" stroke-dasharray="0 0" transform="rotate(119.13043478260869, 711, 400)" opacity="0.17"></path><path d="M715 354.17Q724.6 360.69 734.11 367.31 743.52 373.97 752.82 380.61 752.85 390.99 752.36 401.37 751.4 411.75 750.05 422.14 740.23 425.93 730.39 429.73 720.55 433.6 710.72 437.59 702.52 431.29 694.28 425.17 685.99 419.26 677.62 413.59 678.78 403.13 679.61 392.68 680.03 382.22 680.01 371.77 688.93 367 697.74 362.5 710.71 356.2 715 354.17" stroke-dasharray="0 0" transform="rotate(125.08695652173913, 711, 400)" opacity="0.13"></path><path d="M716.14 368.07Q728.56 376.77 740.76 385.61 740.23 399.47 738.89 413.33 725.91 418.42 712.86 423.69 701.76 415.31 690.52 407.27 691.73 393.34 692.21 379.4 710.21 370.81 716.14 368.07" stroke-dasharray="0 0" transform="rotate(131.04347826086956, 711, 400)" opacity="0.09"></path></g></svg>